<?xml version="1.0" standalone="no"?>
<!DOCTYPE svg PUBLIC "-//W3C//DTD SVG 20010904//EN"
 "http://www.w3.org/TR/2001/REC-SVG-20010904/DTD/svg10.dtd">
<svg version="1.0" xmlns="http://www.w3.org/2000/svg"
 width="800.000000pt" height="800.000000pt" viewBox="0 0 800.000000 800.000000"
 preserveAspectRatio="xMidYMid meet">

<g transform="translate(0.000000,800.000000) scale(0.100000,-0.100000)"
fill="#000000" stroke="none">
<path d="M4323 7093 c5 -9 -22 -10 -101 -6 -74 4 -115 2 -130 -6 -17 -9 -22
-9 -22 1 0 9 -3 9 -12 0 -8 -8 -50 -12 -123 -12 -124 0 -223 -18 -334 -60 -69
-26 -124 -43 -263 -81 -57 -16 -64 -33 -10 -23 34 7 36 6 23 -10 -13 -16 -12
-17 12 -11 16 4 27 3 27 -3 0 -12 -25 -23 -62 -28 -15 -2 -53 -15 -85 -28
-175 -74 -178 -76 -153 -77 14 -1 29 -1 34 0 4 1 18 -2 30 -5 36 -12 -43 -25
-84 -14 -43 12 -50 12 -50 2 0 -5 11 -15 25 -22 14 -7 25 -20 25 -29 0 -13 2
-13 9 -2 6 9 11 10 15 2 4 -6 -4 -13 -18 -17 -36 -9 -52 -30 -30 -42 11 -6 13
-12 6 -16 -6 -4 -9 -13 -5 -21 7 -21 -23 -19 -45 3 -10 9 -24 18 -32 19 -8 1
-26 5 -40 9 -24 6 -24 5 8 -28 l33 -35 -26 -7 c-20 -5 -25 -11 -20 -26 5 -15
-7 -29 -56 -65 l-63 -46 38 3 c47 4 57 -14 19 -29 -17 -7 -20 -11 -9 -10 29 3
30 -18 1 -37 -24 -16 -27 -16 -52 4 -14 11 -36 20 -49 20 -13 0 -24 5 -24 11
0 8 -5 8 -15 -1 -16 -14 -10 -34 7 -24 6 4 8 2 4 -4 -3 -6 5 -22 19 -36 26
-27 32 -50 14 -61 -19 -12 -27 -49 -14 -60 20 -16 28 -82 11 -92 -17 -10 -26
-49 -10 -46 6 1 11 -6 12 -15 0 -17 -35 -118 -48 -137 -9 -12 -18 -85 -10 -85
3 1 21 25 40 55 43 67 71 79 35 15 -8 -14 -14 -37 -15 -52 0 -15 -5 -30 -11
-34 -8 -4 -7 -9 2 -15 8 -5 9 -9 3 -9 -7 0 -13 -46 -18 -127 -3 -71 -8 -173
-11 -228 -3 -55 -6 -125 -6 -155 0 -30 -1 -75 -1 -100 -4 -123 -2 -219 5 -363
l8 -157 -37 34 c-47 43 -69 39 -68 -15 0 -21 -1 -39 -3 -39 -2 0 -10 15 -18
33 -17 38 -16 42 -19 -148 -1 -82 -6 -193 -11 -246 -6 -75 -4 -119 9 -195 28
-162 22 -152 55 -107 25 33 27 40 15 54 -8 9 -11 19 -8 22 4 4 -8 40 -25 81
-18 40 -31 84 -29 97 3 20 6 16 17 -19 7 -24 25 -65 40 -90 16 -26 32 -58 36
-72 4 -14 18 -38 30 -55 12 -16 25 -42 27 -57 l5 -27 -27 22 c-15 12 -26 24
-24 26 2 2 11 -2 20 -10 16 -13 16 -12 6 7 -21 40 -38 47 -54 22 -25 -39 -30
-54 -12 -33 15 18 16 18 10 2 -3 -10 -6 -28 -6 -38 0 -11 -4 -18 -9 -15 -29
18 -6 -135 33 -216 24 -49 42 -64 60 -49 11 9 15 9 20 -1 3 -7 4 -4 1 8 -3 12
1 27 10 34 13 11 15 6 15 -43 0 -31 -5 -59 -10 -62 -6 -4 -27 6 -47 21 -38 29
-74 97 -94 177 -6 26 -14 46 -16 43 -9 -9 19 -110 44 -158 21 -44 84 -98 113
-98 11 0 35 -36 44 -66 5 -18 -17 -45 -123 -152 -158 -161 -245 -275 -311
-411 -28 -57 -66 -127 -84 -155 -18 -28 -52 -87 -76 -131 -59 -108 -76 -127
-239 -259 -57 -46 -133 -101 -168 -122 -74 -43 -74 -42 -115 -214 -36 -151
-37 -154 -44 -148 -2 3 2 32 10 64 37 147 56 237 52 241 -3 3 -29 -7 -60 -21
-30 -14 -57 -26 -60 -26 -3 0 -81 -32 -173 -71 -92 -39 -206 -86 -253 -105
-155 -64 -148 -59 -164 -117 -9 -29 -22 -88 -30 -132 -27 -143 -28 -140 -10
41 2 23 11 58 20 79 16 38 14 52 -5 40 -16 -9 -53 -85 -42 -85 4 0 9 -12 9
-26 0 -24 -27 -44 -60 -44 -15 0 -1 47 27 88 14 20 22 38 20 40 -3 3 -29 -11
-58 -31 -52 -34 -55 -38 -67 -99 -8 -34 -17 -148 -21 -253 l-7 -190 2 207 c1
114 -1 205 -3 202 -3 -3 -10 -19 -16 -36 -10 -31 -45 -58 -96 -73 -29 -9 -75
-28 -145 -60 -41 -19 -56 -32 -75 -71 -13 -26 -27 -47 -32 -46 -8 2 -66 -38
-113 -78 -16 -14 -71 -77 -123 -140 -51 -63 -111 -130 -132 -148 l-39 -34 0
-493 0 -492 985 -2 984 -2 7 26 c4 15 4 93 1 173 -4 86 -2 137 3 122 4 -14 9
-38 9 -55 1 -16 6 -37 12 -45 8 -11 9 -6 5 22 -2 21 0 40 5 43 5 4 9 -52 9
-139 0 -118 3 -146 14 -146 10 0 15 24 21 94 4 51 6 113 5 137 -3 63 -3 62 29
40 16 -12 34 -21 40 -21 23 0 82 -77 123 -160 30 -62 48 -90 61 -90 9 0 17 3
17 6 0 3 -25 54 -55 113 -58 114 -91 152 -170 198 -32 19 -60 46 -78 75 -26
41 -28 50 -18 80 6 18 13 53 16 78 6 46 20 79 29 69 4 -3 8 -24 10 -46 3 -34
0 -43 -18 -51 l-21 -11 23 -7 c12 -3 22 -12 22 -19 0 -31 254 -249 426 -367
132 -90 171 -111 190 -104 9 3 12 1 9 -4 -4 -6 38 -10 115 -10 86 0 119 3 114
11 -5 8 -1 8 14 0 13 -7 80 -11 169 -11 l148 1 -25 22 c-14 12 -39 33 -55 46
l-30 23 30 -17 c17 -10 46 -31 66 -47 46 -35 61 -36 46 -3 -7 14 -17 23 -24
21 -12 -5 -36 17 -28 26 3 2 -1 5 -9 5 -7 0 -71 38 -142 85 -116 78 -344 219
-434 270 -19 11 -48 30 -65 42 -16 11 -37 26 -47 31 -42 24 -256 183 -286 211
-7 7 -64 45 -127 84 -109 68 -245 186 -245 213 0 6 30 -18 68 -55 63 -61 133
-112 227 -163 74 -40 346 -211 485 -305 14 -9 88 -56 165 -104 314 -197 381
-244 486 -344 l46 -43 68 3 68 3 -92 120 c-50 66 -126 167 -169 224 -42 57
-89 118 -104 136 -36 42 -97 151 -103 184 -5 24 -4 24 7 -4 46 -108 96 -167
123 -145 8 7 18 9 24 6 5 -3 23 6 40 20 27 23 44 30 74 33 5 1 5 6 2 11 -3 6
3 10 14 10 11 0 23 5 27 12 5 7 3 8 -6 3 -9 -6 -11 -4 -6 4 5 7 13 10 20 8 17
-7 49 19 41 33 -4 7 0 10 11 8 11 -2 18 2 16 10 -1 6 15 28 35 48 32 31 34 36
15 31 -15 -4 -25 1 -32 13 -9 16 -13 17 -35 6 -14 -7 -45 -11 -72 -9 -57 5
-156 32 -164 45 -3 5 -16 5 -31 -1 -17 -6 -29 -6 -36 1 -8 8 -15 8 -26 -1 -11
-9 -15 -9 -19 1 -7 18 -48 -32 -42 -50 3 -8 8 -26 11 -40 6 -28 -41 73 -56
121 -10 30 -82 166 -114 212 -11 17 -14 25 -5 18 8 -7 64 -19 124 -28 60 -9
112 -18 115 -20 3 -2 30 -6 60 -9 37 -5 90 -24 166 -61 61 -30 116 -55 123
-55 7 0 26 -9 42 -21 16 -11 29 -18 29 -15 0 4 22 -5 50 -19 27 -14 53 -25 56
-24 20 3 10 -12 -20 -31 -20 -12 -36 -24 -36 -27 0 -3 10 1 23 9 12 8 42 20
67 27 25 7 68 25 95 41 66 37 68 62 18 178 -14 33 -14 35 15 70 16 21 61 64
101 97 103 85 219 200 270 268 24 32 58 69 75 83 17 15 110 103 206 198 207
201 249 240 273 249 9 3 17 12 17 18 0 8 -5 8 -17 -1 -10 -8 23 26 72 74 50
49 101 92 114 97 13 5 21 12 19 15 -7 6 54 69 64 66 4 -1 4 6 1 15 -4 10 -2
14 4 10 6 -4 17 1 24 10 12 14 12 16 0 8 -24 -14 27 65 74 115 70 75 110 130
179 244 48 80 67 104 72 91 4 -9 4 -105 0 -213 -4 -109 -6 -201 -6 -207 11
-179 10 -254 -5 -375 -10 -74 -19 -144 -20 -155 -2 -23 -16 -123 -20 -145 -2
-8 -10 -62 -20 -120 -9 -58 -25 -138 -36 -179 -11 -41 -22 -96 -24 -123 -2
-31 -19 -81 -46 -136 -23 -48 -55 -116 -71 -152 -75 -167 -144 -293 -208 -380
-139 -190 -190 -257 -272 -353 -45 -54 -102 -121 -126 -150 l-42 -52 51 -3
c50 -3 54 -1 93 41 61 65 143 121 461 312 263 158 309 184 560 310 255 128
367 193 453 263 23 19 45 32 48 29 18 -17 -246 -183 -464 -291 -227 -112 -366
-187 -497 -266 -66 -39 -135 -81 -153 -91 -50 -29 -92 -62 -87 -68 3 -2 19 5
35 18 87 64 348 211 605 341 160 80 322 166 360 191 76 49 104 64 120 60 5 -2
7 1 3 5 -4 4 11 21 34 38 24 17 44 29 45 26 4 -8 103 92 115 115 5 11 -16 -5
-46 -37 -65 -65 -76 -60 -15 7 48 52 41 60 -10 13 -22 -21 -27 -23 -13 -7 31
36 41 78 31 132 -4 26 -11 77 -14 114 -7 83 -33 247 -45 288 -8 25 -26 118
-46 240 -27 165 -36 206 -100 455 -25 96 -50 194 -55 218 -6 23 -15 40 -20 36
-11 -6 -5 -37 27 -127 13 -38 24 -71 24 -75 -1 -18 -21 29 -40 93 -12 38 -28
85 -36 103 -18 42 -18 54 1 22 26 -45 15 1 -24 104 -7 16 -14 27 -17 24 -2 -3
0 -18 6 -34 9 -23 9 -26 -1 -17 -7 7 -12 26 -12 43 0 16 -3 30 -7 30 -4 0 -28
44 -54 98 -51 104 -245 407 -255 397 -3 -4 -6 -12 -6 -18 -2 -27 -27 -98 -60
-165 -19 -40 -35 -77 -35 -83 0 -6 -12 -33 -27 -60 -19 -33 -33 -47 -43 -44
-8 4 -11 3 -8 -1 12 -11 -80 -124 -100 -124 -4 0 -23 -20 -42 -44 -27 -34 -42
-44 -62 -44 -30 1 -35 16 -18 48 6 12 7 21 0 25 -12 7 -24 -38 -17 -65 3 -13
-3 -24 -19 -35 -13 -8 -24 -11 -24 -6 0 5 4 12 9 15 12 8 21 46 10 46 -5 0 -9
-7 -9 -15 0 -17 -75 -95 -90 -95 -6 0 -10 -6 -10 -13 0 -18 -24 -67 -32 -67
-5 0 -8 6 -8 12 0 20 -34 98 -42 98 -13 0 -9 -22 6 -39 8 -9 17 -31 21 -49 6
-29 5 -32 -17 -30 -18 2 -23 -2 -23 -19 -1 -29 -20 -30 -21 -2 -1 11 -9 28
-19 37 -16 16 -17 15 -12 -13 5 -31 -7 -65 -23 -65 -6 0 -10 12 -11 28 -1 22
-3 20 -10 -13 -8 -37 -12 -40 -42 -40 -17 0 -35 4 -40 10 -4 6 -11 3 -18 -8
-8 -14 -14 -16 -25 -6 -15 12 -19 6 -26 -35 -2 -11 -9 -21 -16 -24 -7 -2 -11
2 -10 8 6 24 -19 20 -32 -4 -7 -14 -17 -23 -23 -19 -5 3 -13 -1 -18 -8 -8 -12
-11 -12 -19 1 -5 8 -10 12 -10 8 0 -4 -10 -4 -23 1 -13 5 -30 5 -39 0 -13 -7
-15 -5 -12 14 l5 22 -12 -22 c-15 -29 -29 -29 -29 0 l0 22 -20 -25 c-17 -22
-19 -23 -25 -7 -4 10 -18 17 -32 17 -13 0 -22 4 -19 8 3 5 -6 20 -20 35 -27
30 -30 39 -10 31 8 -3 17 -13 19 -22 3 -10 5 1 5 23 0 22 -2 33 -5 24 -2 -11
-11 -15 -23 -12 -12 3 -17 11 -14 21 3 10 -1 6 -9 -8 -9 -14 -13 -28 -10 -33
2 -4 -1 -6 -9 -5 -8 2 -14 -9 -16 -28 -3 -29 -6 -32 -38 -31 -22 1 -34 6 -34
15 0 12 -3 12 -15 2 -12 -10 -16 -9 -21 4 -3 9 -11 16 -18 15 -30 -4 -36 3
-36 41 0 22 -4 40 -10 40 -5 0 -10 -4 -10 -10 0 -5 -3 -10 -7 -10 -5 0 -8 22
-7 49 0 36 -4 51 -18 60 -11 7 -18 7 -18 1 0 -5 6 -10 13 -10 8 0 7 -4 -3 -10
-10 -7 -12 -12 -4 -18 21 -14 12 -42 -14 -42 -23 0 -24 3 -19 41 3 22 2 53 -3
69 -6 22 -4 32 11 46 10 9 16 21 13 26 -3 4 -2 7 3 6 4 -2 8 2 8 7 0 6 -3 9
-7 8 -5 -2 -8 1 -8 5 0 10 56 52 69 52 5 0 11 5 13 12 3 9 6 9 12 0 4 -7 2
-12 -3 -12 -6 0 -11 -6 -11 -13 0 -7 -12 -18 -27 -24 l-28 -12 30 6 c17 3 32
9 35 12 3 3 30 19 61 35 53 26 64 28 166 27 l109 -2 32 35 c28 31 31 39 22 62
-6 15 -9 29 -6 31 2 3 30 15 61 28 l57 23 -135 7 c-74 4 -189 4 -255 0 -101
-6 -126 -5 -153 9 -18 9 -38 16 -45 16 -22 0 -28 22 -10 36 10 7 16 16 15 21
-1 4 17 16 42 25 36 14 39 17 19 18 -25 2 -25 2 4 14 20 9 25 15 15 19 -8 3 6
6 31 6 25 0 122 3 215 7 221 8 234 7 341 -16 107 -23 136 -25 184 -12 32 8 36
7 37 -10 2 -16 36 -92 68 -150 23 -43 37 -15 37 78 1 63 -2 78 -21 97 -11 13
-19 26 -15 29 3 4 -3 15 -14 26 -14 14 -24 17 -36 10 -19 -11 -41 3 -81 50
-21 25 -30 30 -36 20 -7 -10 -11 -11 -17 0 -9 13 -42 6 -42 -8 0 -16 32 -41
72 -57 33 -13 37 -18 24 -25 -20 -11 -155 7 -204 28 -18 7 -39 11 -47 7 -9 -3
-22 0 -30 7 -9 8 -28 10 -48 6 -23 -4 -28 -3 -17 4 11 8 5 10 -25 10 -142 -2
-276 9 -299 24 -14 9 -37 16 -51 16 -45 0 -26 18 28 25 28 4 57 11 63 16 6 5
22 8 34 7 17 -2 26 4 32 22 6 20 7 17 4 -12 -5 -42 -5 -43 46 -52 32 -6 39 -4
54 19 14 22 15 31 4 73 -7 26 -17 51 -21 57 -11 12 -12 45 -1 45 4 0 13 -5 19
-11 8 -8 17 -6 34 10 29 27 54 34 76 23 27 -15 93 11 126 50 26 31 38 66 18
53 -5 -3 -29 7 -53 23 -100 65 -86 63 -147 26 -51 -31 -56 -32 -82 -18 -15 8
-41 14 -56 14 -29 1 -75 34 -86 63 -5 14 1 12 27 -8 18 -14 39 -25 47 -25 9 0
6 5 -6 12 -11 6 -35 25 -53 42 -18 17 -36 30 -40 29 -4 -2 -7 3 -7 10 0 21
-27 77 -37 77 -5 0 -7 -4 -4 -8 3 -5 -1 -9 -9 -9 -18 0 -20 14 -3 19 9 3 9 12
-1 36 -10 25 -10 38 -1 69 7 21 17 44 23 51 5 7 7 15 3 19 -3 3 -6 1 -6 -5 0
-9 -5 -9 -21 0 -17 11 -19 20 -15 53 4 22 8 63 11 90 6 81 14 111 36 139 17
22 22 44 24 115 2 48 9 107 16 132 6 24 11 61 10 82 -3 51 -51 100 -64 65 -3
-9 -12 -6 -29 10 -13 12 -27 20 -29 18 -3 -3 -5 5 -5 17 -1 66 -5 95 -18 113
-12 15 -17 17 -27 7 -18 -18 -49 -16 -49 3 0 14 -3 14 -15 4 -13 -11 -18 -10
-31 9 -9 12 -19 19 -22 17 -4 -2 -39 2 -77 10 -39 8 -79 16 -90 18 -11 2 -42
9 -70 16 -27 6 -83 14 -124 16 -78 5 -105 17 -98 44 3 13 -2 15 -24 12 -29 -4
-29 -4 -24 43 2 26 11 53 19 59 28 22 38 79 21 125 -8 24 -13 47 -10 51 3 5 6
27 7 50 1 22 5 43 9 46 4 2 6 33 4 69 -3 44 0 68 9 77 7 7 11 18 9 24 -2 7 2
18 10 25 12 13 29 46 31 61 1 4 7 13 15 20 10 10 12 10 7 1 -8 -15 10 -18 19
-4 3 6 25 20 50 32 24 12 43 25 42 28 -1 4 17 24 40 45 24 21 40 42 37 47 -3
5 -2 9 3 8 14 -4 63 20 63 31 0 18 201 110 241 110 9 0 22 7 29 15 9 10 17 12
23 6 5 -5 16 -7 23 -4 8 3 14 1 14 -4 0 -11 153 13 182 28 10 5 78 12 150 15
76 4 167 14 212 25 70 17 151 25 119 12 -7 -2 -13 -9 -13 -14 0 -6 8 -5 20 1
16 8 20 8 18 -2 -2 -10 27 -13 138 -11 77 0 157 6 177 11 26 7 39 7 43 0 4 -7
2 -8 -4 -4 -7 4 -12 3 -12 -2 0 -5 27 -12 60 -16 33 -4 60 -11 60 -17 0 -5 -8
-22 -17 -37 l-17 -27 27 28 c29 30 41 28 75 -12 15 -19 16 -63 0 -79 -8 -8 -8
-12 -1 -12 12 0 21 -33 29 -110 3 -30 10 -68 15 -85 6 -16 13 -86 16 -155 3
-69 10 -130 15 -137 5 -7 10 -48 11 -92 1 -45 6 -81 10 -81 5 0 7 7 3 15 -3 8
-1 15 4 15 6 0 10 -7 10 -16 0 -8 24 -72 54 -142 52 -122 63 -160 72 -247 3
-22 11 -62 19 -90 10 -32 13 -37 9 -15 -18 114 -24 160 -23 200 0 44 0 44 14
20 8 -14 14 -20 15 -14 0 12 -58 161 -90 231 -24 51 -24 57 -5 49 10 -4 15 1
15 14 0 35 18 21 25 -19 4 -22 13 -42 21 -45 11 -4 13 2 7 37 -3 23 -13 48
-21 56 -19 20 -9 141 13 157 12 9 13 13 2 22 -7 6 -14 23 -15 38 -3 44 -12 41
-12 -4 0 -22 -5 -44 -10 -47 -6 -3 -7 -17 -4 -31 3 -13 2 -24 -3 -24 -5 0 -6
-24 -3 -55 5 -44 3 -55 -7 -51 -8 4 -13 -3 -14 -17 0 -21 -1 -21 -8 -2 -5 11
-5 22 0 25 5 3 8 37 7 75 -1 46 6 89 18 125 23 66 19 127 -9 122 -23 -4 -22
20 3 102 12 37 19 70 16 74 -2 4 2 16 10 27 14 18 14 18 14 -3 0 -12 5 -22 10
-22 6 0 10 11 10 25 0 41 -31 30 -75 -25 -45 -56 -56 -52 -26 9 10 23 15 41
10 41 -5 0 -2 14 6 31 15 28 15 33 -4 70 -11 21 -18 46 -15 54 5 11 2 13 -10
9 -12 -5 -10 7 11 56 15 34 29 57 31 51 2 -6 9 -11 16 -11 7 0 13 -7 13 -15 0
-8 -4 -15 -9 -15 -4 0 -8 -7 -8 -15 0 -18 16 -20 23 -2 3 6 8 -3 12 -21 8 -33
33 -40 27 -7 -3 17 -2 17 13 2 15 -16 14 -19 -12 -42 -15 -13 -22 -25 -15 -25
17 0 15 -40 -3 -40 -23 0 -20 -7 23 -55 6 -7 11 -22 10 -32 -3 -33 14 -103 26
-103 11 0 46 -69 46 -91 0 -24 -55 35 -60 63 -3 17 -11 33 -17 36 -23 7 -2
-60 33 -109 19 -25 31 -48 29 -51 -3 -3 0 -18 6 -34 15 -38 21 -96 9 -89 -6 3
-7 -1 -4 -9 3 -9 1 -16 -5 -16 -14 0 -14 -40 -1 -74 6 -16 6 -27 0 -31 -6 -4
-10 -12 -10 -18 0 -8 3 -7 9 2 5 7 14 10 20 7 14 -9 15 -36 1 -36 -6 0 -5 -8
2 -20 16 -26 2 -39 -17 -14 -19 26 -19 5 1 -36 11 -20 16 -55 15 -94 -1 -63
-37 -371 -48 -415 -6 -23 -7 -24 -14 -6 -14 36 -10 -32 6 -114 8 -42 19 -121
25 -176 8 -91 9 -84 5 75 -4 207 3 256 53 353 2 4 -4 4 -13 0 -16 -6 -17 0
-11 58 3 35 9 188 12 339 5 221 3 304 -10 425 -30 272 -43 361 -56 386 -17 30
-12 67 9 74 11 3 25 12 32 21 10 13 8 13 -15 5 -35 -14 -34 4 2 24 15 9 18 13
7 10 -11 -4 -33 -9 -49 -12 -27 -4 -28 -3 -17 11 9 10 10 16 2 16 -7 0 -8 12
-4 33 6 29 5 31 -10 18 -9 -7 -17 -12 -18 -10 0 2 -3 17 -5 32 -3 16 -14 51
-24 78 -11 27 -20 63 -20 79 0 36 -10 61 -21 54 -5 -3 -9 -13 -9 -22 0 -9 -9
-28 -20 -42 l-20 -25 16 40 c12 29 15 57 11 103 -5 45 -3 61 5 56 8 -5 9 4 5
32 -4 21 -7 46 -8 54 -1 8 -5 -3 -8 -25 l-7 -40 -13 63 c-8 34 -18 65 -22 68
-5 3 -6 -2 -3 -10 13 -33 -12 -14 -28 22 -17 36 -18 36 -14 7 2 -16 7 -38 11
-47 4 -11 3 -18 -4 -18 -5 0 -18 23 -28 50 -17 49 -52 78 -61 51 -3 -9 -7 -9
-18 -1 -11 10 -12 6 -4 -19 4 -17 11 -35 15 -41 12 -20 -17 -10 -36 13 l-20
22 7 -25 c10 -38 31 -67 62 -85 16 -10 35 -27 42 -39 12 -20 12 -20 -6 -6 -10
8 -29 23 -41 34 -13 11 -23 14 -23 8 0 -6 4 -13 9 -16 5 -3 11 -17 13 -30 4
-21 2 -23 -16 -17 -21 8 -35 31 -18 31 22 0 -2 37 -35 55 -33 18 -313 287
-313 301 0 13 38 -22 166 -153 72 -73 138 -133 146 -133 13 0 13 7 -2 49 -9
28 -22 56 -28 63 -6 8 -20 34 -31 60 -10 25 -24 49 -30 52 -15 10 -14 -7 1
-22 7 -7 8 -12 3 -12 -10 0 -84 81 -85 93 0 4 -6 7 -14 7 -7 0 -33 25 -56 55
-24 31 -45 53 -48 50 -3 -2 -27 11 -54 30 -26 19 -48 31 -48 26 0 -23 -33 -19
-58 7 -15 15 -31 28 -37 28 -5 1 -13 3 -17 4 -5 1 -13 3 -19 4 -5 0 -19 12
-30 26 -19 23 -20 24 -14 3 6 -20 3 -21 -37 -18 -61 6 -108 -4 -101 -21 6 -16
-74 16 -121 49 -16 12 -26 16 -23 10z m-33 -53 c13 -11 21 -22 18 -25 -2 -3
-15 6 -28 20 -28 30 -22 33 10 5z m772 -322 c40 -54 75 -103 77 -110 9 -27
-24 10 -77 85 -31 45 -78 102 -104 127 -58 56 -63 73 -8 29 22 -18 72 -76 112
-131z m-231 -15 c13 -16 12 -17 -3 -4 -10 7 -18 15 -18 17 0 8 8 3 21 -13z
m70 -70 c13 -16 12 -17 -3 -4 -10 7 -18 15 -18 17 0 8 8 3 21 -13z m367 -8
c-3 -3 -9 2 -12 12 -6 14 -5 15 5 6 7 -7 10 -15 7 -18z m-2 -22 c26 -28 25
-45 -1 -23 -18 15 -39 50 -30 50 3 0 17 -12 31 -27z m-326 -13 c0 -5 -2 -10
-4 -10 -3 0 -8 5 -11 10 -3 6 -1 10 4 10 6 0 11 -4 11 -10z m-659 -17 c13 -16
12 -17 -3 -4 -10 7 -18 15 -18 17 0 8 8 3 21 -13z m759 -51 c3 -2 -6 -1 -20 3
-14 4 -36 18 -50 32 -25 25 -25 25 20 -2 25 -15 47 -30 50 -33z m338 -52 c1
-34 -2 -40 -8 -25 -5 11 -8 43 -8 70 0 39 2 45 8 25 4 -14 8 -45 8 -70z m-288
58 c0 -6 -6 -5 -15 2 -8 7 -15 14 -15 16 0 2 7 1 15 -2 8 -4 15 -11 15 -16z
m58 -20 c14 -19 38 -26 27 -8 -3 6 -1 10 4 10 13 0 14 -10 3 -27 -6 -9 -18 -3
-43 24 -19 20 -27 32 -19 28 8 -5 21 -17 28 -27z m197 -13 c4 -21 3 -25 -3
-15 -15 24 -26 67 -14 55 6 -5 13 -23 17 -40z m-2350 15 c-3 -5 -12 -10 -18
-10 -7 0 -6 4 3 10 19 12 23 12 15 0z m2120 -54 l40 -16 -30 25 c-16 14 -25
25 -18 25 6 0 14 -4 18 -9 3 -5 18 -12 33 -16 15 -3 39 -16 53 -28 35 -30 107
-155 114 -197 l6 -35 -14 37 c-18 47 -47 92 -54 84 -3 -3 -2 -11 3 -18 6 -7
16 -31 23 -53 7 -22 20 -48 28 -57 13 -15 12 -18 -6 -27 -30 -17 -46 -14 -31
4 16 20 3 68 -40 143 -24 40 -47 63 -100 97 -39 25 -73 45 -76 45 -2 0 -15 10
-27 21 l-22 21 30 -15 c17 -8 48 -22 70 -31z m-54 -32 c110 -48 138 -68 171
-122 35 -56 11 -48 -54 19 -60 61 -136 108 -201 124 -15 4 -27 11 -27 16 0 13
-3 14 111 -37z m-68 -29 c14 -14 27 -21 29 -15 3 11 92 -32 118 -57 27 -26
-38 -4 -139 49 -76 39 -88 48 -63 48 18 0 39 -10 55 -25z m113 -142 l29 -25
-38 22 c-21 12 -83 44 -137 71 -55 27 -100 51 -100 54 0 9 219 -99 246 -122z
m-2281 37 c3 -5 -1 -10 -10 -10 -9 0 -13 5 -10 10 3 6 8 10 10 10 2 0 7 -4 10
-10z m2094 -16 c14 -12 -19 -1 -35 12 -18 14 -18 14 6 3 14 -6 27 -13 29 -15z
m331 -48 c0 -5 -10 0 -22 11 -13 11 -33 26 -45 32 -13 6 -23 16 -23 22 0 12
89 -52 90 -65z m-150 -62 c0 -2 -9 0 -20 6 -11 6 -20 13 -20 16 0 2 9 0 20 -6
11 -6 20 -13 20 -16z m232 -31 c-3 -16 -7 -22 -10 -15 -4 13 4 42 11 42 2 0 2
-12 -1 -27z m-70 -63 c6 0 8 -7 4 -15 -3 -8 -1 -15 3 -15 5 0 11 6 14 13 2 6
8 9 12 5 5 -5 0 -17 -10 -28 -19 -21 -41 -28 -30 -9 4 6 -4 22 -16 36 -20 22
-21 25 -6 20 10 -4 23 -7 29 -7z m105 -6 c-3 -3 -12 -4 -19 -1 -8 3 -5 6 6 6
11 1 17 -2 13 -5z m-47 -94 c0 -5 -4 -10 -10 -10 -5 0 -10 5 -10 10 0 6 5 10
10 10 6 0 10 -4 10 -10z m86 2 c16 -10 -12 -75 -28 -66 -9 6 -9 9 0 12 7 2 12
8 12 14 0 6 -7 7 -16 4 -24 -9 -35 3 -21 24 12 21 34 25 53 12z m147 -193 c-4
-15 -9 -17 -17 -9 -8 8 -7 13 4 20 8 5 16 10 17 10 0 0 -1 -9 -4 -21z m-163
-3 c0 -3 -4 -8 -10 -11 -5 -3 -10 -1 -10 4 0 6 5 11 10 11 6 0 10 -2 10 -4z
m-2239 -95 c14 -15 17 -65 20 -392 3 -261 7 -377 15 -384 7 -5 14 -21 17 -35
5 -21 -5 -41 -50 -100 -31 -41 -65 -95 -76 -120 -11 -25 -22 -40 -24 -33 -2 7
0 20 6 31 14 27 4 57 -25 73 -21 11 -27 11 -34 0 -4 -8 -12 -11 -17 -8 -5 3
-9 -2 -10 -11 -2 -33 -10 -79 -16 -88 -3 -5 -8 -30 -12 -54 -3 -25 -10 -60
-15 -79 -5 -19 -7 -37 -5 -40 3 -2 1 -9 -4 -15 -26 -32 -34 -261 -12 -366 6
-30 13 -86 17 -125 5 -62 20 -156 55 -325 6 -30 21 -89 34 -130 25 -81 24 -95
-8 -112 -19 -10 -26 -6 -58 31 -21 23 -47 70 -60 104 -12 34 -30 85 -40 112
-10 28 -20 71 -24 95 -56 438 -61 544 -32 695 9 44 25 134 37 200 45 257 65
323 129 431 81 134 102 229 105 457 0 86 -3 158 -8 160 -5 2 -3 14 5 27 7 14
12 31 11 38 -4 16 54 -11 79 -37z m464 -21 c-10 -11 -21 -18 -23 -15 -3 3 3
12 14 20 27 20 30 18 9 -5z m-50 -40 c-3 -5 -12 -10 -18 -10 -7 0 -6 4 3 10
19 12 23 12 15 0z m2035 -11 c0 -5 -4 -9 -10 -9 -5 0 -10 7 -10 16 0 8 5 12
10 9 6 -3 10 -10 10 -16z m-2180 -113 c0 -2 -8 -10 -17 -17 -16 -13 -17 -12
-4 4 13 16 21 21 21 13z m2010 -101 c0 -13 -53 -105 -67 -117 -9 -7 -1 17 18
54 29 57 49 83 49 63z m195 -173 c-5 -14 -7 -14 -15 -2 -6 8 -10 26 -10 40 l0
24 16 -22 c9 -13 13 -30 9 -40z m-2295 -289 c0 -16 -4 -23 -8 -17 -8 13 -43 3
-44 -11 0 -6 -12 -18 -28 -28 -24 -15 -28 -16 -33 -2 -4 9 2 19 16 26 12 7 30
23 40 36 26 33 57 31 57 -4z m-640 -276 c0 -6 -9 -2 -20 8 -11 10 -20 23 -20
28 0 6 9 2 20 -8 11 -10 20 -23 20 -28z m737 7 c-3 -3 -12 -4 -19 -1 -8 3 -5
6 6 6 11 1 17 -2 13 -5z m98 -40 c14 5 28 -17 18 -28 -9 -9 -25 -7 -19 2 3 5
-22 7 -54 5 -49 -4 -60 -1 -60 11 0 17 55 26 83 13 10 -5 25 -6 32 -3z m25
-169 c0 -8 -7 -15 -15 -15 -26 0 -18 20 13 29 1 1 2 -6 2 -14z m-123 -26 c-6
-23 24 -92 45 -105 7 -5 31 -11 53 -15 l40 -6 -37 -2 c-20 0 -64 8 -98 18
-108 34 -129 74 -57 110 53 26 61 26 54 0z m-687 -14 c0 -14 -2 -25 -4 -25 -2
0 -6 11 -8 25 -3 14 -1 25 3 25 5 0 9 -11 9 -25z m992 -34 l38 -35 -88 -18
c-48 -10 -88 -18 -89 -18 -2 0 13 21 32 46 19 25 35 55 35 66 0 24 8 19 72
-41z m-1024 11 c2 -7 -2 -12 -10 -12 -7 0 -24 -12 -37 -25 -31 -33 -46 -32
-24 3 30 49 61 64 71 34z m904 -24 c-7 -7 -12 -8 -12 -2 0 6 3 14 7 17 3 4 9
5 12 2 2 -3 -1 -11 -7 -17z m238 -68 c16 -10 18 -9 -55 -30 -22 -6 -51 -16
-65 -22 -14 -6 -34 -14 -45 -19 -11 -4 -37 -15 -58 -25 -27 -12 -41 -14 -46
-6 -4 7 -12 8 -21 2 -20 -13 -43 -13 -35 0 3 6 15 10 26 10 13 0 19 6 17 16
-2 11 5 18 17 20 61 10 85 17 85 25 0 5 -12 9 -27 9 -29 0 -22 15 12 23 37 9
180 7 195 -3z m-30 -63 c0 -2 -11 -18 -25 -37 -31 -42 -31 -46 -1 -54 21 -5
23 -10 18 -54 -2 -28 1 -59 8 -71 9 -18 8 -41 -5 -114 -10 -51 -23 -103 -29
-117 -21 -48 -68 -110 -82 -110 -8 0 -14 -4 -14 -8 0 -9 -59 -88 -95 -128 -11
-12 -40 -50 -65 -84 -78 -107 -98 -127 -110 -110 -5 8 -10 25 -10 38 0 16 -6
22 -21 22 -18 0 -20 5 -18 44 2 27 -3 51 -12 62 -8 11 -9 15 -1 10 17 -10 15
2 -3 20 -8 9 -15 24 -15 35 0 13 -4 18 -12 13 -7 -4 -8 -3 -4 5 4 6 4 21 1 32
-6 17 -9 19 -16 8 -7 -9 -7 -5 -3 14 3 15 2 27 -4 27 -5 0 -15 15 -23 33 -11
29 -27 54 -91 149 -10 15 -18 31 -18 36 0 17 -27 63 -35 60 -4 -2 -14 20 -21
47 -12 47 -11 51 9 70 29 26 75 31 91 10 15 -21 84 -25 96 -5 6 10 36 14 107
16 54 1 116 7 137 13 22 5 44 7 49 4 6 -3 7 -1 3 5 -5 8 1 13 16 14 13 1 32 2
43 3 11 1 19 7 17 14 -2 8 4 10 16 7 12 -4 31 7 62 39 38 38 60 54 60 42z
m235 -345 c-3 -3 -11 0 -18 7 -9 10 -8 11 6 5 10 -3 15 -9 12 -12z m-1268
-179 c-3 -10 -5 -2 -5 17 0 19 2 27 5 18 2 -10 2 -26 0 -35z m1122 -28 c7 4
11 -7 11 -29 0 -19 7 -42 16 -51 18 -17 12 -45 -9 -45 -8 0 -20 -6 -27 -14 -6
-8 -21 -16 -33 -18 -13 -2 -21 -9 -19 -17 3 -12 0 -12 -12 -1 -9 7 -16 21 -16
32 0 24 28 125 43 152 9 19 10 19 23 2 7 -10 17 -15 23 -11z m111 -109 c0 -2
-7 -7 -16 -10 -8 -3 -12 -2 -9 4 6 10 25 14 25 6z m338 -161 c11 -10 11 -13
-2 -18 -9 -4 -21 2 -31 16 l-15 21 0 -21 c0 -30 -17 -38 -30 -14 -19 37 42 50
78 16z m-125 -59 c12 -10 15 -16 7 -21 -6 -4 -17 1 -24 11 -7 9 -18 14 -24 10
-7 -4 -12 -2 -12 3 0 15 31 13 53 -3z m84 -232 c-3 -3 -12 -4 -19 -1 -8 3 -5
6 6 6 11 1 17 -2 13 -5z m-387 -184 c-12 -16 -27 -30 -33 -30 -7 0 -4 7 6 14
9 7 17 19 17 25 0 16 24 41 28 30 2 -5 -6 -22 -18 -39z m985 -10 c3 -5 1 -10
-4 -10 -6 0 -11 5 -11 10 0 6 2 10 4 10 3 0 8 -4 11 -10z m12 -42 c-3 -8 -6
-5 -6 6 -1 11 2 17 5 13 3 -3 4 -12 1 -19z m-1913 -208 c-6 -101 -20 -160 -37
-160 -9 0 -3 241 7 290 2 14 5 32 6 40 1 8 8 -3 16 -25 11 -29 13 -65 8 -145z
m1783 -392 c-3 -7 -5 -2 -5 12 0 14 2 19 5 13 2 -7 2 -19 0 -25z m-3196 -252
c-8 -9 -8 -21 -2 -39 6 -15 6 -29 1 -32 -12 -8 -23 32 -16 61 4 13 11 24 17
24 8 0 8 -4 0 -14z m243 -289 c-2 -96 -4 -185 -4 -200 0 -17 -7 -28 -21 -32
-17 -6 -18 -9 -7 -22 11 -13 13 -13 19 4 7 18 12 -60 10 -157 -2 -86 -35 -245
-62 -305 l-28 -60 0 235 c-1 159 4 267 14 335 8 55 17 116 20 135 3 19 10 49
15 66 6 17 13 42 15 55 6 33 28 119 31 119 1 0 0 -78 -2 -173z m-344 88 c34
-18 36 -21 14 -29 -8 -3 -13 -2 -10 3 3 5 -2 12 -11 15 -17 7 -36 -12 -27 -26
3 -4 0 -8 -5 -8 -6 0 -11 -4 -11 -10 0 -15 40 -12 41 3 0 8 2 8 5 1 3 -7 15
-10 27 -8 12 2 -4 -5 -36 -16 -85 -29 -174 -35 -288 -20 -79 11 -99 16 -94 27
3 8 5 23 5 33 0 15 14 20 83 29 45 6 93 13 107 15 70 10 173 5 200 -9z m134
-125 c-14 -70 -24 -99 -24 -71 0 21 32 153 36 149 2 -3 -3 -38 -12 -78z m-677
-172 c-3 -8 -6 -5 -6 6 -1 11 2 17 5 13 3 -3 4 -12 1 -19z m56 -15 c-7 -2 -19
-2 -25 0 -7 3 -2 5 12 5 14 0 19 -2 13 -5z m4326 -218 c-23 -69 -47 -125 -52
-125 -5 0 -7 6 -4 13 24 63 77 218 83 242 6 21 9 25 12 12 2 -10 -16 -74 -39
-142z m-109 -238 c-74 -130 -104 -200 -104 -244 -1 -24 -5 -43 -9 -43 -5 0 -6
4 -2 9 3 5 1 12 -4 15 -6 4 -6 20 0 44 14 54 141 302 151 296 5 -3 -9 -38 -32
-77z m-2301 -211 c23 -49 40 -90 38 -92 -7 -8 -118 235 -116 254 0 4 9 -11 19
-33 10 -22 37 -80 59 -129z m-1062 132 c-3 -8 -6 -5 -6 6 -1 11 2 17 5 13 3
-3 4 -12 1 -19z m37 -23 c3 -8 1 -15 -3 -15 -5 0 -11 7 -15 15 -3 8 -1 15 3
15 5 0 11 -7 15 -15z m1349 -212 c-7 -2 -21 -2 -30 0 -10 3 -4 5 12 5 17 0 24
-2 18 -5z m-137 -251 c22 -14 245 -347 235 -350 -21 -7 -68 38 -127 118 -32
45 -85 118 -116 161 -58 79 -58 79 -30 79 15 0 32 -4 38 -8z m270 -426 c13
-28 13 -29 0 -11 -9 11 -19 25 -24 30 -4 6 -12 17 -17 25 -8 13 -7 13 9 1 9
-8 24 -28 32 -45z m4 -58 c0 -14 -19 1 -31 25 -12 22 -12 22 10 3 11 -11 21
-23 21 -28z"/>
<path d="M3450 4620 l-25 -8 28 -1 c15 -1 27 4 27 9 0 6 -1 10 -2 9 -2 -1 -14
-5 -28 -9z"/>
<path d="M3681 4264 c0 -11 3 -14 6 -6 3 7 2 16 -1 19 -3 4 -6 -2 -5 -13z"/>
<path d="M1815 1753 c-15 -39 -16 -90 0 -103 13 -11 15 -5 15 54 0 68 -3 78
-15 49z"/>
<path d="M1817 1443 c-3 -5 -1 -17 4 -28 7 -17 8 -17 8 8 1 27 -4 34 -12 20z"/>
<path d="M1818 1355 c-3 -22 -6 -53 -7 -70 -1 -50 -34 -215 -43 -215 -4 0 -8
-8 -8 -17 0 -13 6 -9 19 12 22 36 54 222 49 285 l-3 45 -7 -40z"/>
<path d="M3100 475 c29 -31 31 -31 17 0 -7 14 -18 25 -26 25 -10 0 -7 -8 9
-25z"/>
<path d="M4952 6895 c11 -20 23 -34 25 -31 7 7 -26 66 -37 66 -5 0 0 -16 12
-35z"/>
<path d="M5144 6691 c0 -13 11 -30 24 -39 29 -19 28 -5 -2 33 -23 28 -23 28
-22 6z"/>
<path d="M2745 6390 c-4 -7 3 -8 22 -4 38 9 42 14 10 14 -14 0 -29 -5 -32 -10z"/>
<path d="M4010 5820 c-9 -6 -10 -10 -3 -10 6 0 15 5 18 10 8 12 4 12 -15 0z"/>
<path d="M3905 5780 c-3 -6 1 -7 9 -4 18 7 21 14 7 14 -6 0 -13 -4 -16 -10z"/>
<path d="M5486 5625 c-3 -8 -1 -15 4 -15 6 0 10 7 10 15 0 8 -2 15 -4 15 -2 0
-6 -7 -10 -15z"/>
<path d="M5501 5503 c4 -27 8 -57 9 -68 1 -19 2 -19 9 -1 7 17 -8 98 -20 111
-3 3 -2 -16 2 -42z"/>
<path d="M5518 5262 c-3 -22 -1 -29 9 -25 15 6 17 22 4 42 -6 9 -10 4 -13 -17z"/>
<path d="M5530 5221 c0 -6 5 -13 10 -16 6 -3 10 1 10 9 0 9 -4 16 -10 16 -5 0
-10 -4 -10 -9z"/>
<path d="M5019 4816 c-4 -5 -253 -26 -360 -31 -31 -1 -65 -8 -77 -14 -18 -10
-21 -9 -15 5 5 13 -1 12 -33 -5 -21 -12 -46 -21 -55 -21 -9 0 -19 -7 -23 -15
-3 -8 -13 -15 -22 -15 -10 0 -14 -5 -11 -14 4 -10 1 -13 -9 -9 -17 6 -20 -27
-3 -44 14 -14 -4 -49 -29 -57 -11 -4 -25 -19 -32 -34 -8 -15 -21 -35 -29 -45
-12 -15 -13 -22 -3 -37 7 -11 12 -25 12 -32 0 -18 80 -99 90 -93 5 3 11 1 15
-5 3 -5 15 -10 26 -10 10 0 19 -4 19 -10 0 -5 9 -10 19 -10 11 0 23 -5 26 -10
4 -7 45 -9 115 -5 87 5 115 3 139 -10 17 -8 40 -15 53 -15 24 1 -44 27 -144
55 -32 9 -58 21 -58 26 0 6 5 7 10 4 6 -4 29 12 50 35 38 40 40 41 40 18 0
-32 38 -89 70 -105 39 -20 103 -16 134 8 30 24 56 69 56 99 0 11 2 20 5 20 14
0 65 -39 93 -71 l32 -36 -73 -21 c-39 -12 -95 -23 -124 -23 -29 -1 -50 -6 -47
-11 8 -13 84 -3 199 28 113 29 125 32 143 33 23 2 12 16 -26 33 -29 13 -31 16
-9 11 26 -5 38 9 17 22 -20 12 -10 26 11 15 31 -17 33 -7 4 24 -27 30 -32 41
-12 31 6 -4 -10 14 -36 39 -42 39 -52 44 -69 35 -15 -8 -19 -8 -14 0 4 6 1 11
-6 11 -7 0 -24 3 -38 5 -22 5 -22 4 -5 -4 19 -9 19 -10 -2 -10 -12 -1 -23 3
-25 7 -1 5 -16 12 -31 16 -16 4 -26 3 -24 -2 7 -10 -102 -9 -126 2 -17 8 -17
10 -1 27 9 11 23 19 30 19 7 0 19 6 26 14 24 23 212 60 238 46 13 -7 21 -7 25
0 9 15 86 12 119 -5 l29 -15 -17 22 c-18 26 -40 70 -38 79 1 3 -10 4 -23 2
-13 -3 -31 0 -42 6 -10 6 -12 11 -5 11 6 0 12 5 12 10 0 6 -11 8 -25 4 -16 -4
-25 -2 -25 6 0 9 -11 10 -36 5 -24 -4 -34 -3 -29 4 6 11 -36 16 -46 7z m-46
-293 c-7 -2 -21 -2 -30 0 -10 3 -4 5 12 5 17 0 24 -2 18 -5z m122 -12 c17 -3
26 -9 20 -12 -5 -3 -35 0 -65 7 -45 10 -49 12 -20 12 19 0 49 -3 65 -7z m85
-21 c8 -5 11 -10 5 -10 -5 0 -17 5 -25 10 -8 5 -10 10 -5 10 6 0 17 -5 25 -10z
m-295 -40 c-3 -5 -15 -10 -26 -10 -10 0 -19 5 -19 10 0 6 12 10 26 10 14 0 23
-4 19 -10z m232 -16 c-3 -3 -12 -4 -19 -1 -8 3 -5 6 6 6 11 1 17 -2 13 -5z
m-501 -102 c-9 -2 -26 -1 -38 1 l-23 4 23 8 c12 4 22 12 22 19 0 6 7 2 16 -9
13 -18 13 -20 0 -23z m-116 12 c0 -14 -3 -14 -15 -4 -8 7 -15 14 -15 16 0 2 7
4 15 4 8 0 15 -7 15 -16z"/>
<path d="M5195 4790 c3 -5 13 -10 21 -10 8 0 12 5 9 10 -3 6 -13 10 -21 10 -8
0 -12 -4 -9 -10z"/>
<path d="M5531 4784 c0 -11 3 -14 6 -6 3 7 2 16 -1 19 -3 4 -6 -2 -5 -13z"/>
<path d="M4162 4565 c0 -16 2 -22 5 -12 2 9 2 23 0 30 -3 6 -5 -1 -5 -18z"/>
<path d="M5706 4571 c-4 -7 -5 -15 -2 -18 9 -9 19 4 14 18 -4 11 -6 11 -12 0z"/>
<path d="M5660 4510 c-12 -16 -19 -30 -16 -30 2 0 14 14 26 30 12 17 19 30 16
30 -2 0 -14 -13 -26 -30z"/>
<path d="M5712 4445 c0 -16 2 -22 5 -12 2 9 2 23 0 30 -3 6 -5 -1 -5 -18z"/>
<path d="M5722 4350 c0 -14 2 -19 5 -12 2 6 2 18 0 25 -3 6 -5 1 -5 -13z"/>
<path d="M4420 4341 c0 -5 5 -13 10 -16 6 -3 10 -2 10 4 0 5 -4 13 -10 16 -5
3 -10 2 -10 -4z"/>
<path d="M5592 3958 c-1 -14 -5 -35 -8 -45 -5 -14 -4 -15 5 -7 7 7 11 26 8 45
-3 28 -4 29 -5 7z"/>
<path d="M5575 3742 c-4 -40 -5 -76 -2 -78 7 -7 20 121 15 138 -3 7 -8 -20
-13 -60z"/>
<path d="M4330 3570 c-8 -5 -32 -8 -52 -6 -21 2 -41 0 -44 -5 -7 -12 89 -12
102 0 5 5 18 11 29 14 l20 5 -20 1 c-11 0 -27 -4 -35 -9z"/>
<path d="M5551 3516 c0 -22 0 -37 2 -35 1 2 11 14 22 27 15 18 16 22 3 17 -11
-4 -18 0 -21 12 -3 10 -5 0 -6 -21z"/>
<path d="M4314 3327 c3 -10 6 -23 6 -28 0 -6 5 -7 10 -4 6 4 10 -7 10 -26 0
-24 3 -30 11 -22 14 14 7 68 -9 68 -7 0 -17 7 -23 15 -9 12 -10 12 -5 -3z"/>
<path d="M4426 3307 c3 -10 9 -15 12 -12 3 3 0 11 -7 18 -10 9 -11 8 -5 -6z"/>
<path d="M4387 3303 c-4 -3 -7 -20 -6 -37 l1 -31 9 34 c10 33 8 47 -4 34z"/>
<path d="M4450 3265 c-6 -15 -8 -30 -6 -33 3 -3 10 8 16 23 6 15 8 30 6 33 -3
3 -10 -8 -16 -23z"/>
<path d="M5520 3279 c0 -8 10 -20 23 -28 l22 -14 -20 24 c-11 13 -21 26 -22
28 -2 2 -3 -2 -3 -10z"/>
<path d="M4410 3260 c0 -19 3 -21 12 -12 9 9 9 15 0 24 -9 9 -12 7 -12 -12z"/>
<path d="M4510 3230 c0 -11 2 -20 4 -20 2 0 6 9 9 20 3 11 1 20 -4 20 -5 0 -9
-9 -9 -20z"/>
<path d="M4476 3225 c-3 -8 -1 -15 4 -15 6 0 10 7 10 15 0 8 -2 15 -4 15 -2 0
-6 -7 -10 -15z"/>
<path d="M4547 3210 c-3 -11 -1 -20 4 -20 5 0 9 9 9 20 0 11 -2 20 -4 20 -2 0
-6 -9 -9 -20z"/>
<path d="M4587 3201 c-19 -33 -21 -41 -8 -41 8 0 41 54 41 67 0 13 -19 -2 -33
-26z"/>
<path d="M5575 3206 c10 -14 19 -26 22 -26 7 0 -17 39 -28 46 -6 3 -3 -5 6
-20z"/>
<path d="M5510 3198 c0 -10 150 -237 162 -244 10 -6 -25 50 -74 120 -16 21
-28 44 -28 50 -1 12 -59 85 -60 74z"/>
<path d="M4520 3175 c0 -20 17 -28 23 -11 3 8 -1 17 -9 20 -8 3 -14 -1 -14 -9z"/>
<path d="M4626 3181 c-4 -7 -5 -15 -2 -18 9 -9 19 4 14 18 -4 11 -6 11 -12 0z"/>
<path d="M5666 3072 c10 -19 32 -48 48 -65 l28 -32 -26 37 c-14 20 -26 39 -26
43 0 3 -10 16 -21 28 l-22 22 19 -33z"/>
<path d="M4930 3051 c0 -5 5 -13 10 -16 6 -3 10 -2 10 4 0 5 -4 13 -10 16 -5
3 -10 2 -10 -4z"/>
<path d="M5671 3003 c7 -12 15 -20 18 -17 3 2 -3 12 -13 22 -17 16 -18 16 -5
-5z"/>
<path d="M5699 2955 c17 -34 31 -51 31 -39 0 7 -9 22 -21 35 -16 19 -18 20
-10 4z"/>
<path d="M5738 2885 c33 -67 102 -218 102 -225 0 -5 4 -12 10 -15 12 -8 2 20
-52 139 -23 50 -48 98 -56 106 -13 13 -13 13 -4 -5z"/>
<path d="M4910 2623 c0 -5 7 -18 15 -30 10 -14 12 -24 5 -28 -18 -11 -11 -23
11 -18 12 4 18 11 15 20 -3 8 -6 21 -6 28 0 8 -9 19 -20 25 -11 6 -20 7 -20 3z"/>
<path d="M5940 2579 c0 -4 6 -22 14 -40 18 -45 127 -477 140 -554 27 -170 35
-231 40 -295 3 -41 10 -113 15 -160 6 -47 13 -114 15 -150 11 -130 39 -319 47
-314 9 5 7 32 -12 150 -28 184 -15 299 61 521 22 65 40 126 40 136 0 11 -10
33 -22 50 -36 52 -151 207 -154 207 -1 0 0 -9 3 -20 4 -14 0 -20 -10 -20 -22
0 -22 2 -58 136 -48 183 -118 391 -119 353z"/>
<path d="M5042 2345 c-12 -19 -19 -35 -15 -35 5 0 18 16 31 35 12 19 19 35 15
35 -5 0 -18 -16 -31 -35z"/>
<path d="M4520 2260 c0 -5 5 -10 11 -10 5 0 7 5 4 10 -3 6 -8 10 -11 10 -2 0
-4 -4 -4 -10z"/>
<path d="M6438 1822 c-46 -146 -51 -162 -44 -162 2 0 12 26 21 58 9 31 23 71
30 87 12 27 45 124 45 132 0 2 -3 3 -7 3 -5 0 -25 -53 -45 -118z"/>
<path d="M6496 1919 c-14 -47 -13 -60 6 -70 26 -14 17 -35 -13 -31 -22 3 -26
-3 -37 -50 -6 -30 -12 -67 -12 -84 0 -32 -20 -84 -32 -84 -5 0 -8 -18 -8 -40
0 -22 -4 -40 -10 -40 -20 0 -59 24 -63 39 -3 11 -5 10 -6 -5 0 -12 -9 -57 -20
-100 -24 -104 -23 -357 3 -418 19 -46 19 -46 3 -46 -7 0 -26 -14 -43 -31 -51
-54 -153 -122 -273 -181 -112 -56 -122 -72 -13 -21 29 14 55 23 58 21 2 -3
-87 -49 -198 -102 -112 -54 -219 -108 -240 -121 -20 -13 -65 -36 -100 -50 -54
-21 -59 -22 -38 -5 38 30 20 24 -56 -18 -347 -194 -356 -199 -534 -319 -200
-136 -235 -163 -209 -163 13 0 51 9 83 20 71 24 67 23 60 6 -3 -8 -13 -17 -22
-19 -10 -3 18 -5 60 -6 76 -1 77 -1 200 65 68 37 128 70 133 74 12 9 82 48
185 103 91 48 205 121 214 136 11 17 36 13 35 -6 0 -11 -3 -13 -6 -6 -3 9 -17
2 -44 -19 -24 -19 -35 -34 -28 -38 7 -5 5 -9 -6 -13 -9 -4 -13 -3 -10 3 10 15
-9 12 -31 -6 -17 -14 -17 -15 -1 -10 11 3 16 2 12 -4 -3 -6 -12 -10 -18 -10
-19 0 -233 -106 -322 -160 -44 -26 -102 -60 -130 -76 l-50 -29 72 -3 c52 -2
92 3 138 17 74 23 284 126 423 208 52 30 95 53 98 51 4 -5 -142 -108 -153
-108 -5 0 -24 -14 -43 -30 -30 -26 -83 -52 -250 -123 -19 -9 -28 -16 -18 -16
50 -3 371 157 544 271 71 46 150 96 176 111 26 15 54 37 63 50 12 18 17 19 24
8 12 -18 21 -81 16 -106 -2 -11 -4 -26 -4 -33 -1 -13 -17 -21 -114 -56 -55
-21 -67 -39 -97 -151 -31 -116 -19 -111 14 6 26 88 34 104 60 120 17 11 40 19
52 19 12 0 38 11 58 25 20 14 39 25 42 25 6 0 -4 -211 -12 -257 l-6 -32 420
-1 420 0 5 327 c3 181 8 342 11 360 5 31 45 113 71 143 34 41 104 247 91 268
-2 4 6 54 19 112 13 57 23 105 22 105 -1 1 -37 9 -80 20 -113 27 -112 26 -73
115 53 120 51 134 -3 23 -46 -94 -65 -116 -85 -96 -3 4 -12 8 -19 9 -7 1 -57
15 -112 31 -175 53 -181 54 -210 43 -21 -8 -33 -6 -56 7 -16 10 -29 21 -29 25
0 13 50 159 72 211 23 53 43 63 36 17 -4 -28 -2 -31 51 -51 31 -11 71 -30 88
-40 18 -11 37 -17 43 -14 6 4 16 2 23 -3 13 -10 134 -52 151 -52 5 0 1 7 -10
15 -18 14 -17 14 14 8 25 -4 36 -1 46 13 13 18 3 23 -187 86 -111 37 -208 70
-215 73 -36 13 60 91 101 82 12 -3 58 -14 101 -26 44 -12 81 -19 84 -17 2 3
-39 18 -91 35 -110 35 -226 80 -244 94 -9 6 -14 5 -17 -4z m254 -244 c162 -55
226 -82 165 -69 -16 4 -57 17 -90 29 -90 35 -139 49 -152 47 -7 -2 -24 5 -38
14 -14 9 -32 14 -40 10 -9 -3 -15 0 -15 9 0 8 2 15 4 15 2 0 76 -25 166 -55z
m160 -335 c8 -5 11 -10 5 -10 -5 0 -17 5 -25 10 -8 5 -10 10 -5 10 6 0 17 -5
25 -10z m135 -31 l20 -8 -20 0 c-11 0 -38 7 -60 14 l-40 14 40 -6 c22 -3 49
-9 60 -14z m-468 -51 c-3 -8 -6 -5 -6 6 -1 11 2 17 5 13 3 -3 4 -12 1 -19z
m-242 -603 c-3 -121 -8 -231 -9 -245 -2 -14 -5 -72 -6 -130 -3 -104 -4 -104
-11 55 -4 88 -9 186 -11 218 -2 31 1 57 5 57 5 0 6 4 2 10 -3 5 -9 39 -14 75
-6 51 -5 65 6 65 7 0 13 8 13 18 0 14 -2 15 -10 2 -8 -13 -10 -12 -11 5 -1 11
-1 25 0 31 2 17 -32 12 -46 -6 -6 -8 -15 -12 -19 -8 -3 4 7 23 24 43 17 19 42
53 54 75 l23 39 8 -42 c5 -23 6 -141 2 -262z m-309 -91 c-3 -8 -11 -14 -18
-13 -10 0 -10 2 0 6 10 4 9 10 -5 26 -10 11 -13 17 -7 14 7 -4 15 3 19 16 7
21 8 21 12 -6 3 -16 2 -35 -1 -43z m-171 16 c-9 -15 -65 -42 -65 -32 0 5 15
16 33 25 39 19 40 19 32 7z m135 -10 c0 -5 -2 -10 -4 -10 -3 0 -8 5 -11 10 -3
6 -1 10 4 10 6 0 11 -4 11 -10z m-25 -47 c-18 -38 -33 -74 -40 -100 -4 -13
-11 -23 -17 -23 -7 0 -7 4 -1 13 6 6 16 34 23 60 11 42 32 77 45 77 2 0 -2
-12 -10 -27z m-305 7 c-8 -5 -19 -10 -25 -10 -5 0 -3 5 5 10 8 5 20 10 25 10
6 0 3 -5 -5 -10z m330 -23 c0 -7 -7 -22 -15 -33 -13 -17 -13 -16 -3 14 13 34
18 40 18 19z m-240 -13 c0 -8 -4 -12 -10 -9 -5 3 -10 10 -10 16 0 5 5 9 10 9
6 0 10 -7 10 -16z m-10 -41 c0 -7 -3 -13 -7 -13 -10 0 -32 48 -25 54 7 7 31
-25 32 -41z m-53 -5 c-3 -8 -6 -5 -6 6 -1 11 2 17 5 13 3 -3 4 -12 1 -19z
m323 -2 c0 -2 -8 -10 -17 -17 -16 -13 -17 -12 -4 4 13 16 21 21 21 13z m-660
-20 c0 -2 -8 -10 -17 -17 -16 -13 -17 -12 -4 4 13 16 21 21 21 13z m575 -49
c-67 -45 -111 -72 -105 -65 17 20 128 97 140 98 8 0 -8 -15 -35 -33z m494
-178 c21 -28 21 -30 3 -20 -11 6 -22 20 -25 31 -7 26 -5 26 22 -11z m89 -4
c-3 -3 -9 2 -12 12 -6 14 -5 15 5 6 7 -7 10 -15 7 -18z m1 -33 c-14 -5 -39 6
-39 17 0 5 11 4 25 -2 13 -7 20 -14 14 -15z m301 1 c0 -5 -5 -15 -10 -23 -8
-12 -10 -11 -10 8 0 12 5 22 10 22 6 0 10 -3 10 -7z m-1766 -18 c-10 -8 -23
-15 -28 -15 -6 0 -1 7 10 15 10 8 23 15 28 15 6 0 1 -7 -10 -15z m1671 -5 c3
-5 1 -10 -4 -10 -6 0 -11 5 -11 10 0 6 2 10 4 10 3 0 8 -4 11 -10z m127 -35
c-2 -14 -11 -25 -20 -25 -12 0 -13 3 -4 12 7 7 12 20 12 31 0 10 4 16 9 13 4
-3 6 -17 3 -31z m-1842 21 c0 -7 -103 -56 -108 -52 -2 3 18 16 45 30 47 25 63
30 63 22z"/>
<path d="M7001 1699 c-6 -18 -9 -34 -7 -36 2 -2 9 10 15 28 6 18 9 34 7 36 -2
2 -9 -10 -15 -28z"/>
<path d="M7041 1678 c-6 -17 -9 -33 -7 -35 2 -3 7 6 11 19 4 13 12 26 17 29 7
4 7 9 0 13 -6 3 -15 -8 -21 -26z"/>
<path d="M6550 1665 c0 -21 213 -112 241 -103 6 2 -25 16 -69 31 -45 14 -99
38 -121 52 -41 25 -51 29 -51 20z"/>
<path d="M6341 1624 c0 -11 3 -14 6 -6 3 7 2 16 -1 19 -3 4 -6 -2 -5 -13z"/>
<path d="M7175 1609 c-16 -4 -25 -7 -18 -8 6 0 18 -8 27 -16 13 -13 15 -13 21
6 8 26 7 27 -30 18z"/>
<path d="M6546 1575 c-3 -9 -6 -22 -5 -28 0 -7 5 -1 10 12 5 13 8 26 5 28 -2
2 -6 -3 -10 -12z"/>
<path d="M6825 1550 c11 -5 29 -9 40 -9 17 -1 17 1 5 9 -8 5 -26 9 -40 9 -23
0 -23 -1 -5 -9z"/>
<path d="M7303 1403 c-55 -117 -89 -208 -153 -408 -23 -71 -63 -177 -88 -235
-62 -144 -72 -187 -72 -320 0 -170 21 -440 36 -440 11 0 23 75 30 180 3 43 14
113 36 228 9 49 14 56 61 87 29 19 81 46 117 61 58 23 99 55 100 77 0 4 -16 7
-37 7 -45 0 -38 9 18 21 23 6 49 18 56 27 17 21 78 147 88 182 7 23 69 173
114 275 10 22 26 63 36 90 10 28 20 51 21 53 1 2 53 -22 115 -52 62 -31 105
-48 96 -38 -10 11 -17 35 -17 58 0 21 -5 46 -11 54 -7 11 -9 1 -7 -38 2 -28 2
-52 0 -52 -2 0 -12 5 -22 10 -19 10 -28 46 -34 138 -4 54 -45 103 -69 83 -15
-12 -46 -85 -112 -266 -59 -160 -164 -416 -186 -452 -12 -19 -29 -33 -40 -33
-11 0 -33 -7 -49 -15 -17 -9 -30 -13 -30 -10 0 3 -16 -2 -36 -10 -20 -8 -39
-15 -41 -15 -3 0 11 22 31 49 20 27 109 197 198 377 89 181 172 346 186 367
14 20 23 40 20 43 -14 13 -62 -78 -266 -497 l-101 -206 -41 -7 c-36 -6 -110 0
-110 9 0 3 23 59 45 110 7 17 18 46 25 65 7 19 24 59 37 88 12 29 23 54 23 57
0 2 26 50 59 107 92 163 156 288 145 288 -2 0 -9 -11 -14 -25 -9 -24 -75 -63
-86 -52 -3 2 -6 21 -8 41 -2 20 -5 39 -8 41 -3 3 -28 -43 -55 -102z"/>
<path d="M5650 623 c-53 -20 -122 -54 -119 -58 6 -5 130 43 144 56 10 10 -1
11 -25 2z"/>
<path d="M4943 245 c-27 -16 -43 -20 -45 -13 -5 15 -48 -10 -190 -111 -59 -42
-110 -82 -113 -89 -2 -7 22 7 54 32 32 25 61 43 63 40 3 -2 11 2 18 11 14 17
35 21 25 5 -3 -5 -3 -10 0 -10 10 0 35 27 30 32 -3 3 1 5 9 5 13 0 196 111
196 119 0 6 -1 5 -47 -21z"/>
</g>
</svg>
